<svg xmlns="http://www.w3.org/2000/svg" viewBox="0 0 52.1 55.2"><defs><style>.cls-1{fill:#e6e6e6;}.cls-2{fill:#00b1c7;}</style></defs><title>Asset 2</title><g id="Layer_2" data-name="Layer 2"><g id="Layer_2-2" data-name="Layer 2"><path class="cls-1" d="M36,50.92c-15.19,0-27.5-11-27.5-24.59S20.81,1.75,36,1.75a30.65,30.65,0,0,1,6.19.63A32.22,32.22,0,0,0,30,0C13.43,0,0,12.36,0,27.6S13.43,55.2,30,55.2a31.15,31.15,0,0,0,22.1-8.94A29.61,29.61,0,0,1,36,50.92Z"/><path class="cls-2" d="M41.79,44.55c-11.88,0-21.5-8.9-21.5-19.89S29.91,4.77,41.79,4.77c.27,0,.53,0,.8,0A25.22,25.22,0,0,0,36.32,4c-13,0-23.5,9.79-23.5,21.88s10.53,21.88,23.5,21.88A24.4,24.4,0,0,0,52.1,42.11,22.68,22.68,0,0,1,41.79,44.55Z"/></g></g></svg>