<svg xmlns="http://www.w3.org/2000/svg" viewBox="0 0 197.35 55.85"><defs><style>.cls-1,.cls-2{font-size:28px;font-family:LucidaConsole, Lucida Console;letter-spacing:0.03em;}.cls-1,.cls-3{fill:#e6e6e6;}.cls-2,.cls-4{fill:#00b1c7;}</style></defs><title>Asset 9</title><g id="Layer_2" data-name="Layer 2"><g id="Layer_2-2" data-name="Layer 2"><text class="cls-1" transform="translate(45.41 22.76)">CRESCENT</text><text class="cls-2" transform="translate(55.66 49.94)">TUTORING</text><path class="cls-3" d="M36,51.43c-15.19,0-27.5-11-27.5-24.58S20.81,2.26,36,2.26a30.65,30.65,0,0,1,6.19.64A32,32,0,0,0,30,.51C13.43.51,0,12.87,0,28.11s13.43,27.6,30,27.6a31.11,31.11,0,0,0,22.1-8.94A29.61,29.61,0,0,1,36,51.43Z"/><path class="cls-4" d="M41.79,45.06c-11.88,0-21.5-8.9-21.5-19.89S29.91,5.29,41.79,5.29c.27,0,.53,0,.8,0a25.22,25.22,0,0,0-6.27-.79c-13,0-23.5,9.8-23.5,21.88s10.53,21.88,23.5,21.88A24.45,24.45,0,0,0,52.1,42.63,22.8,22.8,0,0,1,41.79,45.06Z"/></g></g></svg>